PathFileType	4	(X/Y/Z)	./resultDataOpenSim/trcMotMarkerGrf/sub09/qtm-12-07.trc
DataRate	CameraRate	NumFrames	NumMarkers	Units	OrigDataRate	OrigDataStartFrame	OrigNumFrames
250.000000	250.000000	14	24	m	250.000000	119	473
Frame#	Time	L.Toe.Tip			R.Toe.Tip			L.Ankle.Lat			R.Ankle.Lat			L.Ankle.Med			R.Ankle.Med			L.Heel			R.Heel			L.Knee.Lat			R.Knee.Lat			L.Knee.Med			R.Knee.Med			L.Thigh.Upper			R.Thigh.Upper			L.ASIS			R.ASIS			V.Sacral			L.Acromium			R.Acromium			C7			L.Elbow			R.Elbow			L.Wrist.Lat			R.Wrist.Lat
		X1	Y1	Z1	X2	Y2	Z2	X3	Y3	Z3	X4	Y4	Z4	X5	Y5	Z5	X6	Y6	Z6	X7	Y7	Z7	X8	Y8	Z8	X9	Y9	Z9	X10	Y10	Z10	X11	Y11	Z11	X12	Y12	Z12	X13	Y13	Z13	X14	Y14	Z14	X15	Y15	Z15	X16	Y16	Z16	X17	Y17	Z17	X18	Y18	Z18	X19	Y19	Z19	X20	Y20	Z20	X21	Y21	Z21	X22	Y22	Z22	X23	Y23	Z23	X24	Y24	Z24

119	0.472	-0.35364299	0.067521321	-0.0043207686	-0.665527	0.040028786	0.1090751	-0.50192469	0.1012597	-0.035532828	-0.81294549	0.056916138	0.14260253	-0.47685378	0.11653995	0.059028214	-0.8007479	0.09664227	0.05255642	-0.56828133	0.059583063	0.015242766	-0.88089752	0.036639161	0.090972048	-0.45969062	0.51840561	-0.061796518	-0.68097523	0.49970139	0.20682635	-0.46068038	0.51297468	0.063083445	-0.7043261	0.49160238	0.079620107	-0.64454037	0.89591622	-0.10591355	-0.67001919	0.90601791	0.26573698	-0.57714759	0.98372744	-0.044387763	-0.56984809	0.98765328	0.1944945	-0.73840075	1.0418191	0.076004105	-0.59011878	1.4363076	-0.092319869	-0.58293791	1.4460629	0.23641114	-0.65243416	1.4911872	0.076924259	-0.75364772	1.104915	-0.13882425	-0.68934959	1.0976998	0.33895754	-0.63377297	0.87257868	-0.18543822	-0.50517182	0.89064124	0.3210276
120	0.476	-0.33344466	0.069190995	-0.0037085748	-0.66551729	0.039970635	0.1091191	-0.48269896	0.09898455	-0.035152687	-0.81283728	0.056941601	0.1424667	-0.45805996	0.11528439	0.059561222	-0.80058495	0.096635318	0.052421507	-0.54780578	0.055798996	0.015515109	-0.88090496	0.036760337	0.090792196	-0.45279554	0.51737642	-0.061799082	-0.6794393	0.49938758	0.20685358	-0.45366015	0.51194856	0.063169605	-0.70256533	0.49131064	0.079749539	-0.63814369	0.8948787	-0.10590509	-0.66447415	0.90531189	0.26560289	-0.57049616	0.98272485	-0.044265195	-0.56372356	0.98668451	0.19474039	-0.73263314	1.0413558	0.074675931	-0.58395684	1.4353905	-0.092454111	-0.57663735	1.4452528	0.2362737	-0.64625661	1.490302	0.076845125	-0.74838081	1.1045541	-0.13895225	-0.68220807	1.0966135	0.33936426	-0.62975946	0.87171708	-0.18617322	-0.49652852	0.89068033	0.32078163
121	0.48	-0.31340696	0.071165988	-0.0031137726	-0.66548822	0.039915299	0.10916546	-0.46353343	0.096967609	-0.034739167	-0.81267734	0.056964627	0.14228928	-0.4393755	0.11421669	0.060036452	-0.80037962	0.096618495	0.052244721	-0.52747231	0.052325143	0.015771424	-0.88090163	0.03687152	0.09060017	-0.44597139	0.51618161	-0.061865405	-0.67783749	0.49903443	0.20686327	-0.44690714	0.51071969	0.063139174	-0.7007603	0.49101188	0.079882993	-0.63180311	0.89371274	-0.10589925	-0.65887475	0.90455553	0.26542684	-0.56382582	0.98161459	-0.044159988	-0.55735551	0.98569799	0.19494761	-0.72659564	1.0406545	0.07374354	-0.57780766	1.4344112	-0.092618695	-0.57033082	1.4443507	0.23613347	-0.64006553	1.4893246	0.076768717	-0.74304867	1.1041117	-0.13906292	-0.67501311	1.0954236	0.33972212	-0.62563359	0.87078287	-0.18689415	-0.4878943	0.89063701	0.32053758
122	0.484	-0.29355985	0.073435302	-0.0025111404	-0.66544114	0.039861128	0.10921106	-0.44445684	0.095214724	-0.034301314	-0.81248164	0.05699159	0.14206419	-0.42082596	0.11330179	0.06044848	-0.80014906	0.096595498	0.052023773	-0.50714161	0.04909074	0.016231255	-0.88089011	0.036978987	0.090382899	-0.43919966	0.51483268	-0.061983982	-0.67616498	0.49864089	0.20685676	-0.44031752	0.50935066	0.063021396	-0.69899358	0.49069361	0.079856638	-0.62541381	0.89243683	-0.10589944	-0.65323101	0.9037392	0.26520977	-0.55714622	0.98039985	-0.044063237	-0.55089736	0.98465923	0.1951296	-0.72023617	1.0396529	0.073322811	-0.57164682	1.4333519	-0.092800501	-0.56403579	1.4433638	0.23598668	-0.63387182	1.4882599	0.076678125	-0.73765003	1.1035746	-0.13915149	-0.66770797	1.0941087	0.33998833	-0.62147895	0.8697589	-0.18762246	-0.47927367	0.89050791	0.32029579
123	0.488	-0.27392918	0.075985992	-0.0018645589	-0.66538373	0.039796404	0.10924797	-0.42548901	0.093738426	-0.033847975	-0.81227851	0.057044674	0.14180664	-0.40243684	0.11260801	0.060886604	-0.79990882	0.096569535	0.05176243	-0.48681158	0.046125982	0.016874575	-0.88087283	0.037093327	0.090128993	-0.43249128	0.51334241	-0.062158921	-0.67441648	0.49820604	0.2068354	-0.43371051	0.50789575	0.062883597	-0.69720162	0.49034611	0.079665193	-0.61892492	0.89106237	-0.10590502	-0.64756122	0.90285493	0.26496098	-0.55045498	0.9790799	-0.043966766	-0.54447283	0.98354975	0.19530739	-0.71369427	1.0384364	0.073193059	-0.56546077	1.432193	-0.092980364	-0.55776931	1.4422965	0.23583406	-0.62767845	1.4871159	0.076558618	-0.73216985	1.1029355	-0.13919391	-0.66026753	1.0926565	0.34014044	-0.6173462	0.8686394	-0.18837561	-0.4706827	0.89028839	0.32005702
124	0.492	-0.25453914	0.078798063	-0.001137057	-0.66532817	0.039707185	0.1092832	-0.40663875	0.092544641	-0.033367573	-0.81208883	0.057165657	0.14153269	-0.3842294	0.11223327	0.061471336	-0.79966082	0.096539791	0.051460235	-0.46657706	0.043498194	0.017564818	-0.88085165	0.03722149	0.089827185	-0.4258454	0.51172334	-0.062405913	-0.67258664	0.49772892	0.20680055	-0.4269729	0.50636902	0.062777396	-0.69527594	0.48998363	0.079446309	-0.61233867	0.88959579	-0.1059109	-0.64188154	0.90190259	0.2646917	-0.54372889	0.97765844	-0.043867971	-0.53815577	0.98235977	0.19549978	-0.70711289	1.0371039	0.07311736	-0.55926818	1.430938	-0.093153064	-0.55152621	1.4411446	0.23567742	-0.62148237	1.4858948	0.076407713	-0.72660219	1.1021956	-0.13918065	-0.6527743	1.0910944	0.34022445	-0.61322218	0.86742839	-0.18915862	-0.46213128	0.88997907	0.31982874
125	0.496	-0.23541084	0.08184819	-0.00029850449	-0.66528169	0.039592334	0.1093426	-0.38791521	0.091625825	-0.032821289	-0.81191314	0.05737893	0.14123013	-0.36622586	0.11221416	0.062256857	-0.79939602	0.096502567	0.051114014	-0.44652102	0.041239583	0.018236033	-0.88082955	0.037362893	0.089471494	-0.41923749	0.50999063	-0.062735331	-0.67066991	0.49720844	0.20675354	-0.42008721	0.50476861	0.06271831	-0.69320335	0.48964524	0.0793029	-0.60568342	0.88803787	-0.10591156	-0.63619831	0.90089042	0.26441011	-0.5369352	0.97614632	-0.043764781	-0.53195736	0.981083	0.19571429	-0.70055303	1.0357035	0.072995011	-0.553099	1.4296076	-0.093331555	-0.54528843	1.4399009	0.23551559	-0.61527694	1.4845961	0.076235199	-0.72097658	1.1013575	-0.13916242	-0.64536572	1.0894706	0.3403229	-0.60904815	0.86613247	-0.18996857	-0.45361209	0.88958671	0.31962052
126	0.5	-0.2165687	0.085114882	0.00068032045	-0.66523379	0.039473648	0.10944387	-0.36934522	0.090979867	-0.032166545	-0.81175774	0.057634799	0.14086753	-0.34845338	0.11250994	0.063184568	-0.79911345	0.096456505	0.050731737	-0.42668838	0.03934716	0.018922231	-0.8808111	0.037514043	0.089071634	-0.41265019	0.50817043	-0.063145785	-0.66866061	0.49664342	0.2066957	-0.41318132	0.50306918	0.062646243	-0.69103666	0.48934353	0.079250879	-0.59898625	0.88638851	-0.10590145	-0.63051038	0.89982174	0.26411632	-0.53007432	0.97455355	-0.04364747	-0.52582771	0.97972459	0.19594312	-0.6940161	1.0342466	0.072821869	-0.54695418	1.4282201	-0.093532974	-0.53905261	1.4385666	0.23534967	-0.60905364	1.483219	0.076049644	-0.71533915	1.1004248	-0.1392211	-0.63809522	1.0878017	0.34046935	-0.6047678	0.86475987	-0.19079566	-0.44511524	0.88911757	0.3194338
127	0.504	-0.19805741	0.088576066	0.0018325511	-0.66516989	0.039380612	0.10956142	-0.35098353	0.090615264	-0.031390322	-0.81165354	0.057842956	0.14044418	-0.33093349	0.11306348	0.06414157	-0.79882845	0.096404286	0.050332546	-0.4071141	0.037808203	0.01968128	-0.88079911	0.037672095	0.088647045	-0.40608013	0.5062906	-0.063622845	-0.6665533	0.49603277	0.20662841	-0.40646018	0.50121678	0.06247344	-0.68879554	0.48902995	0.079267954	-0.59225963	0.88465127	-0.10587436	-0.62481218	0.89868924	0.26380525	-0.52319516	0.97288399	-0.043498876	-0.51970902	0.97829887	0.196172	-0.68748208	1.032734	0.072623091	-0.54077536	1.4267865	-0.0937663	-0.53282758	1.4371512	0.23518536	-0.60280899	1.4817629	0.075850127	-0.70970325	1.0994022	-0.13938924	-0.63091481	1.0860711	0.34063622	-0.60038414	0.86331867	-0.19161972	-0.43664721	0.88857131	0.31926627
128	0.508	-0.17992718	0.092203241	0.0031626214	-0.6650991	0.039320849	0.10962582	-0.33290087	0.090534205	-0.030524819	-0.81162169	0.057971098	0.14000893	-0.31367075	0.11385592	0.065052804	-0.79855211	0.096348179	0.049928616	-0.38783169	0.036603232	0.020537452	-0.88079114	0.037835298	0.088207753	-0.39952334	0.50436317	-0.06413764	-0.66434317	0.49537574	0.20655309	-0.39997776	0.499168	0.062218709	-0.68641717	0.48863728	0.079349821	-0.58550419	0.88282701	-0.10582408	-0.61909977	0.89749008	0.26347745	-0.51634275	0.97113725	-0.043308429	-0.51358683	0.97681737	0.19639816	-0.68093471	1.0311616	0.072416758	-0.53448249	1.425301	-0.094021437	-0.52662048	1.4356631	0.23503211	-0.59654892	1.4802361	0.075636713	-0.70404765	1.098293	-0.13963726	-0.62376279	1.0842636	0.34078728	-0.59595835	0.8618109	-0.19242045	-0.42822467	0.88794519	0.31912132
129	0.512	-0.16220156	0.095957607	0.0046135413	-0.66504664	0.03927466	0.10958221	-0.31515811	0.090717597	-0.029631094	-0.81164237	0.058056084	0.13961364	-0.29667195	0.11488718	0.065903245	-0.79827606	0.096289577	0.049523622	-0.36886852	0.035700555	0.0214769	-0.88078171	0.038006155	0.087752654	-0.39297463	0.50238344	-0.064641908	-0.66202576	0.49467168	0.20647119	-0.39359468	0.49692296	0.06201079	-0.68380392	0.48814195	0.079513171	-0.57871741	0.88091312	-0.10574405	-0.61338313	0.89623014	0.2631408	-0.50951502	0.96931356	-0.043082563	-0.50746967	0.97528253	0.19663293	-0.67437238	1.0295166	0.072202162	-0.52808842	1.4237394	-0.094270906	-0.52043399	1.4341085	0.23489648	-0.5902802	1.4786591	0.075419291	-0.69836207	1.0970982	-0.13992061	-0.61660779	1.082379	0.34090566	-0.5915357	0.86023209	-0.19319669	-0.41985434	0.88724011	0.3190046
130	0.516	-0.14488978	0.099793697	0.0061106259	-0.66502168	0.039217955	0.10945596	-0.29778842	0.091122033	-0.028758301	-0.81167279	0.058142285	0.13927073	-0.2799868	0.11612524	0.066696375	-0.79798779	0.096236165	0.049132323	-0.35025254	0.035062955	0.022450419	-0.88076602	0.038191828	0.08728515	-0.38642608	0.50034933	-0.06506306	-0.65959646	0.4939199	0.20638413	-0.38719112	0.49452536	0.061938511	-0.68094636	0.48756706	0.07972422	-0.57190433	0.87891472	-0.10562527	-0.60768572	0.89491235	0.26280865	-0.50268591	0.96741886	-0.042833087	-0.50135262	0.97368777	0.19688652	-0.6678069	1.0277875	0.071960228	-0.52170276	1.422084	-0.094496739	-0.51425864	1.4324921	0.23477684	-0.58400601	1.4770463	0.075211972	-0.6926677	1.0958216	-0.14020455	-0.60943986	1.0804241	0.34099133	-0.58710199	0.85858033	-0.19396382	-0.41153045	0.88645976	0.31891956
131	0.52	-0.12800765	0.10367074	0.0076260884	-0.66501109	0.039143455	0.10932917	-0.28079928	0.091700394	-0.027932119	-0.81167873	0.058251615	0.13896268	-0.26370485	0.11750197	0.067415007	-0.79768784	0.096203291	0.048777904	-0.33201724	0.034654394	0.023367362	-0.880741	0.038402712	0.086820785	-0.37985363	0.49828339	-0.065325287	-0.6570504	0.49311956	0.20629328	-0.38077428	0.49204658	0.06197804	-0.67795524	0.48693238	0.079878658	-0.56508456	0.87684805	-0.10545773	-0.60202274	0.89353665	0.26249569	-0.49584382	0.96546447	-0.042564642	-0.49522611	0.97202368	0.19715705	-0.66125954	1.025968	0.071662405	-0.51538348	1.4203409	-0.094707572	-0.50807727	1.4308172	0.23466864	-0.57772754	1.475399	0.075020468	-0.68697638	1.0944714	-0.14046957	-0.60225776	1.0784052	0.3410525	-0.5826191	0.85686445	-0.19473346	-0.40325059	0.88560723	0.31886668
132	0.524	-0.11157118	0.10755805	0.0091703174	-0.66500048	0.03906124	0.10925512	-0.26419148	0.092427876	-0.027187493	-0.8116483	0.058389606	0.13867088	-0.24788317	0.11895242	0.06803067	-0.79738626	0.096203516	0.048461919	-0.31418939	0.034429957	0.024115553	-0.8807043	0.038652855	0.086378493	-0.37321353	0.49622937	-0.065391366	-0.65438256	0.49226974	0.20619999	-0.37437533	0.48956453	0.062073876	-0.67496247	0.48621824	0.079878862	-0.55827834	0.87472977	-0.10524366	-0.59638589	0.89210426	0.26220154	-0.48899947	0.96346297	-0.042281733	-0.48909196	0.97028916	0.19743299	-0.65474714	1.0240527	0.071303796	-0.50908131	1.4185282	-0.094919494	-0.50188515	1.4290885	0.2345666	-0.57143388	1.4737101	0.074832767	-0.68122074	1.0930548	-0.14072837	-0.59506572	1.0763259	0.34109693	-0.57806608	0.85510136	-0.19550623	-0.39501762	0.88468442	0.31884492
